<?xml version="1.0" encoding="utf-8"?>
<svg version="1.2" baseProfile="tiny" xmlns="http://www.w3.org/2000/svg"
     x="0px" y="0px" width="40px" height="40px" viewBox="0 0 40 40" overflow="visible"
     xml:space="preserve">
    <g>
	<g>
			<linearGradient id="SVGID_00000078014920241096227930000013741301045112002490_"
                            gradientUnits="userSpaceOnUse" x1="1.2788" y1="28.0779" x2="25.632" y2="6.4777">
			<stop offset="0" style="stop-color:#821745"/>
                <stop offset="0.5024" style="stop-color:#260F1E"/>
                <stop offset="1" style="stop-color:#AE1F31"/>
		</linearGradient>
        <path fill="url(#SVGID_00000078014920241096227930000013741301045112002490_)" d="M23.6673,11.4991
			c3.4404,0.9175,4.6654,0.8832,6.9648,0.9819c-0.7564-0.7433-1.5825-1.5601-2.5036-2.4953c-3.558-3.61-6.3212-6.7446-8.1708-8.9136
			c-1.8495,2.169-4.6128,5.3036-8.1708,8.9136c-0.735,0.7463-2.2264,2.1062-2.8557,2.727
			C16.4788,13.4758,17.4969,9.8537,23.6673,11.4991z"/>

        <linearGradient id="SVGID_00000106843581901881124310000008541882889188207284_" gradientUnits="userSpaceOnUse"
                        x1="6.88" y1="31.2402" x2="29.6563" y2="11.0386">
			<stop offset="0" style="stop-color:#821745"/>
            <stop offset="0.5024" style="stop-color:#260F1E"/>
            <stop offset="1" style="stop-color:#AE1F31"/>
		</linearGradient>
        <path fill="url(#SVGID_00000106843581901881124310000008541882889188207284_)" d="M31.5358,13.3685L3.8115,18.5632
			c-0.4469,0.7879-0.7519,1.6043-0.9381,2.5646c-0.0492,0.254-0.0804,0.5325-0.113,0.8086
			c13.6702,2.2788,15.9422-2.812,22.2967-1.0562c6.4704,1.7878,7.4828,0.5981,11.7238-0.762
			C36.0648,17.8587,34.4929,16.2686,31.5358,13.3685z"/>

        <linearGradient id="SVGID_00000139262257244049631560000009941377664542190232_" gradientUnits="userSpaceOnUse"
                        x1="0.0492" y1="44.0287" x2="33.4176" y2="14.4324">
			<stop offset="0" style="stop-color:#821745"/>
            <stop offset="0.5024" style="stop-color:#260F1E"/>
            <stop offset="1" style="stop-color:#AE1F31"/>
		</linearGradient>
        <path fill="url(#SVGID_00000139262257244049631560000009941377664542190232_)" d="M17.8357,30.0097
			c2.1157-1.755,7.0116-3.0857,9.4982-3.0029c3.6838,0.1228,6.1458,0.7467,8.9074,0.9756c1.0671-2.2443,1.1723-4.8499,0.8107-6.7847
			c-8.1601-0.1288-11.6554,0.913-21.6651,3.0388c-2.6815,0.1233-10.0511,0.4092-12.5131,1.2327
			C8.0732,26.8021,12.6362,28.6767,17.8357,30.0097z"/>

        <linearGradient id="SVGID_00000119110824135015602500000004173215042919555486_" gradientUnits="userSpaceOnUse"
                        x1="17.9401" y1="36.226" x2="33.2787" y2="22.6214">
			<stop offset="0.0637" style="stop-color:#321729"/>
            <stop offset="0.7035" style="stop-color:#AE1F31"/>
		</linearGradient>
        <path fill="url(#SVGID_00000119110824135015602500000004173215042919555486_)" d="M16.7199,32.8284
			c0.2408-0.3302,1.8649-1.045,2.0754-1.3654c0.6507-0.3365,1.4715-0.3431,2.3015-0.1323c0.823,0.209,2.2848,0.4858,3.5368,1.2909
			c-1.4132-0.0917-1.4775,0.3812-0.2278,1.8214c0.368,0.4241-0.8578,2.2686-3.7999-0.1962
			C19.1686,33.481,18.2405,33.9831,16.7199,32.8284z"/>
	</g>
        <g>

			<linearGradient id="SVGID_00000127731594371890804420000010102897322513626815_"
                            gradientUnits="userSpaceOnUse" x1="2.0861" y1="24.3843" x2="29.705" y2="9.848">
			<stop offset="0.0013" style="stop-color:#C3433D"/>
                <stop offset="0.2389" style="stop-color:#B82044"/>
                <stop offset="0.4948" style="stop-color:#C5203E"/>
                <stop offset="0.6381" style="stop-color:#C52540"/>
                <stop offset="0.7696" style="stop-color:#CA4A48"/>
                <stop offset="1" style="stop-color:#E99972"/>
		</linearGradient>
            <path fill="url(#SVGID_00000127731594371890804420000010102897322513626815_)" d="M2.7702,21.8657
			c5.4977-0.3592,10.8467-1.6088,16.8184-4.3747c3.1996-1.482,8.7973-1.9646,13.409-2.6749
			c-1.2335-1.2404-2.7842-2.7195-4.7254-4.6857c-3.1052,0.5701-6.2831,1.3462-9.5355,2.5697
			c-4.245,1.5969-8.2688,2.4004-12.4726,2.7841c-1.9519,2.028-2.9695,3.4714-3.3907,5.6435
			C2.8284,21.3596,2.8014,21.6154,2.7702,21.8657z"/>

            <linearGradient id="SVGID_00000071555485904818178140000001692698677719455389_"
                            gradientUnits="userSpaceOnUse" x1="6.2664" y1="31.8938" x2="33.7156" y2="17.4468">
			<stop offset="0.0013" style="stop-color:#C3433D"/>
                <stop offset="0.2389" style="stop-color:#B82044"/>
                <stop offset="0.4948" style="stop-color:#C5203E"/>
                <stop offset="0.6381" style="stop-color:#C52540"/>
                <stop offset="0.7696" style="stop-color:#CA4A48"/>
                <stop offset="1" style="stop-color:#E99972"/>
		</linearGradient>
            <path fill="url(#SVGID_00000071555485904818178140000001692698677719455389_)" d="M37.0421,21.1278
			c-0.2268-1.1698-0.6265-2.1267-1.2499-3.0776c-4.9962,0.8231-10.3184,1.3059-15.8344,3.8896
			c-6.1335,2.873-11.493,4.7211-17.084,3.5294c0.1999,0.8449,0.7618,2.6936,2.4112,4.2479
			c2.4122,2.2731,5.4074,2.2739,6.4592,2.2742c0.0001,0,3.528-0.0054,6.0916-1.9816c0.2713-0.2092,0.409-0.3406,0.6365-0.5418
			c7.341-6.4925,13.8483-5.1139,18.7546-5.6589C37.2623,22.8471,37.1965,21.9251,37.0421,21.1278z"/>

            <linearGradient id="SVGID_00000170262795415898878130000014340501808244352150_"
                            gradientUnits="userSpaceOnUse" x1="-4.2462" y1="17.8346" x2="26.0111" y2="1.9097">
			<stop offset="0.0013" style="stop-color:#C3433D"/>
                <stop offset="0.2389" style="stop-color:#B82044"/>
                <stop offset="0.4948" style="stop-color:#C5203E"/>
                <stop offset="0.6381" style="stop-color:#C52540"/>
                <stop offset="0.7696" style="stop-color:#CA4A48"/>
                <stop offset="1" style="stop-color:#E99972"/>
		</linearGradient>
            <path fill="url(#SVGID_00000170262795415898878130000014340501808244352150_)" d="M18.2728,8.9594
			c1.8702-1.4911,4.2656-2.0328,6.5654-2.4089c-1.8314-1.981-3.7288-4.1277-4.8804-5.4783
			c-1.8495,2.169-4.6128,5.3036-8.1708,8.9136c-0.6535,0.6635-2.2861,2.1637-2.8557,2.727
			C11.8287,12.0732,15.7946,10.9352,18.2728,8.9594z"/>

            <linearGradient id="SVGID_00000142880097974941687960000009205729290700817840_"
                            gradientUnits="userSpaceOnUse" x1="-6.9246" y1="51.7198" x2="60.4518" y2="16.2585">
			<stop offset="0.0013" style="stop-color:#C3433D"/>
                <stop offset="0.1844" style="stop-color:#B82044"/>
                <stop offset="0.4394" style="stop-color:#C5203E"/>
                <stop offset="0.5944" style="stop-color:#E99972"/>
		</linearGradient>
            <path fill="url(#SVGID_00000142880097974941687960000009205729290700817840_)" d="M24.4058,34.443
			c-1.6737-0.3919-2.4566-0.6571-4.1305-0.1415c-1.6006,0.493-2.2535,0.6846-4.0544,0.083
			c-1.1792,1.4433-2.4119,2.2482-4.178,3.6142c2,0,13.9152,0.0108,16.9056-0.006C28.286,37.3142,25.2552,35.2923,24.4058,34.443z"/>

            <linearGradient id="SVGID_00000159456983174010806380000013913050271741220515_"
                            gradientUnits="userSpaceOnUse" x1="19.2394" y1="34.0511" x2="19.2394" y2="34.0511">
			<stop offset="0.0013" style="stop-color:#C3433D"/>
                <stop offset="0.2389" style="stop-color:#B82044"/>
                <stop offset="0.4948" style="stop-color:#C5203E"/>
                <stop offset="0.6381" style="stop-color:#C52540"/>
                <stop offset="0.7696" style="stop-color:#CA4A48"/>
                <stop offset="1" style="stop-color:#E99972"/>
		</linearGradient>
            <path fill="url(#SVGID_00000159456983174010806380000013913050271741220515_)" d="M19.2394,34.0511"/>

            <linearGradient id="SVGID_00000032608491609103545870000004158547384831197611_"
                            gradientUnits="userSpaceOnUse" x1="14.1367" y1="37.6003" x2="37.6411" y2="25.2296">
			<stop offset="0.0013" style="stop-color:#C3433D"/>
                <stop offset="0.2389" style="stop-color:#B82044"/>
                <stop offset="0.4948" style="stop-color:#C5203E"/>
                <stop offset="0.6381" style="stop-color:#C52540"/>
                <stop offset="0.7696" style="stop-color:#CA4A48"/>
                <stop offset="1" style="stop-color:#E99972"/>
		</linearGradient>
            <path fill="url(#SVGID_00000032608491609103545870000004158547384831197611_)" d="M20.2796,31.9447
			c1.5918-0.036,3.3354,0.5408,4.2313,0.6607c3.2018,0.4285,7.0605,0.4398,9.5601-1.8213c1.664-1.3145,2.5388-3.1727,2.9238-5.0511
			c-1.822,0.9381-4.519,3.178-9.011,3.2421c-3.0202,0.0431-7.9289,0.6581-11.2639,3.8532
			C18.339,32.0116,18.8764,31.9764,20.2796,31.9447z"/>
	</g>
</g>
</svg>